<?xml version="1.0" encoding="UTF-8" ?>
<svg version="1.1" width="45" height="24" xmlns="http://www.w3.org/2000/svg">
<rect x="13" y="1" width="1" height="1" fill="#5FCDE4" />
<rect x="14" y="1" width="1" height="1" fill="#5FCDE4" />
<rect x="15" y="1" width="1" height="1" fill="#5FCDE4" />
<rect x="16" y="1" width="1" height="1" fill="#5FCDE4" />
<rect x="17" y="1" width="1" height="1" fill="#5FCDE4" />
<rect x="18" y="1" width="1" height="1" fill="#5FCDE4" />
<rect x="19" y="1" width="1" height="1" fill="#5FCDE4" />
<rect x="20" y="1" width="1" height="1" fill="#5FCDE4" />
<rect x="21" y="1" width="1" height="1" fill="#5FCDE4" />
<rect x="22" y="1" width="1" height="1" fill="#5FCDE4" />
<rect x="23" y="1" width="1" height="1" fill="#5FCDE4" />
<rect x="24" y="1" width="1" height="1" fill="#5FCDE4" />
<rect x="25" y="1" width="1" height="1" fill="#5FCDE4" />
<rect x="26" y="1" width="1" height="1" fill="#5FCDE4" />
<rect x="27" y="1" width="1" height="1" fill="#5FCDE4" />
<rect x="28" y="1" width="1" height="1" fill="#5FCDE4" />
<rect x="29" y="1" width="1" height="1" fill="#5FCDE4" />
<rect x="30" y="1" width="1" height="1" fill="#5FCDE4" />
<rect x="31" y="1" width="1" height="1" fill="#5FCDE4" />
<rect x="32" y="1" width="1" height="1" fill="#5FCDE4" />
<rect x="33" y="1" width="1" height="1" fill="#5FCDE4" />
<rect x="34" y="1" width="1" height="1" fill="#5FCDE4" />
<rect x="11" y="2" width="1" height="1" fill="#5FCDE4" />
<rect x="12" y="2" width="1" height="1" fill="#5FCDE4" />
<rect x="13" y="2" width="1" height="1" fill="#000000" />
<rect x="14" y="2" width="1" height="1" fill="#000000" />
<rect x="15" y="2" width="1" height="1" fill="#000000" />
<rect x="16" y="2" width="1" height="1" fill="#000000" />
<rect x="17" y="2" width="1" height="1" fill="#000000" />
<rect x="18" y="2" width="1" height="1" fill="#000000" />
<rect x="19" y="2" width="1" height="1" fill="#000000" />
<rect x="20" y="2" width="1" height="1" fill="#000000" />
<rect x="21" y="2" width="1" height="1" fill="#000000" />
<rect x="22" y="2" width="1" height="1" fill="#000000" />
<rect x="23" y="2" width="1" height="1" fill="#000000" />
<rect x="24" y="2" width="1" height="1" fill="#000000" />
<rect x="25" y="2" width="1" height="1" fill="#000000" />
<rect x="26" y="2" width="1" height="1" fill="#000000" />
<rect x="27" y="2" width="1" height="1" fill="#000000" />
<rect x="28" y="2" width="1" height="1" fill="#000000" />
<rect x="29" y="2" width="1" height="1" fill="#000000" />
<rect x="30" y="2" width="1" height="1" fill="#000000" />
<rect x="31" y="2" width="1" height="1" fill="#000000" />
<rect x="32" y="2" width="1" height="1" fill="#000000" />
<rect x="33" y="2" width="1" height="1" fill="#000000" />
<rect x="34" y="2" width="1" height="1" fill="#000000" />
<rect x="35" y="2" width="1" height="1" fill="#5FCDE4" />
<rect x="36" y="2" width="1" height="1" fill="#5FCDE4" />
<rect x="10" y="3" width="1" height="1" fill="#5FCDE4" />
<rect x="11" y="3" width="1" height="1" fill="#000000" />
<rect x="12" y="3" width="1" height="1" fill="#000000" />
<rect x="13" y="3" width="1" height="1" fill="#B1714E" />
<rect x="14" y="3" width="1" height="1" fill="#AF6F4C" />
<rect x="15" y="3" width="1" height="1" fill="#B67652" />
<rect x="16" y="3" width="1" height="1" fill="#B67652" />
<rect x="17" y="3" width="1" height="1" fill="#B67652" />
<rect x="18" y="3" width="1" height="1" fill="#B97A57" />
<rect x="19" y="3" width="1" height="1" fill="#B67652" />
<rect x="20" y="3" width="1" height="1" fill="#B67652" />
<rect x="21" y="3" width="1" height="1" fill="#B67652" />
<rect x="22" y="3" width="1" height="1" fill="#B97A57" />
<rect x="23" y="3" width="1" height="1" fill="#B97A57" />
<rect x="24" y="3" width="1" height="1" fill="#B97A57" />
<rect x="25" y="3" width="1" height="1" fill="#B87956" />
<rect x="26" y="3" width="1" height="1" fill="#B77955" />
<rect x="27" y="3" width="1" height="1" fill="#B97A57" />
<rect x="28" y="3" width="1" height="1" fill="#BE845F" />
<rect x="29" y="3" width="1" height="1" fill="#BD8460" />
<rect x="30" y="3" width="1" height="1" fill="#B97A57" />
<rect x="31" y="3" width="1" height="1" fill="#B97A57" />
<rect x="32" y="3" width="1" height="1" fill="#B97A57" />
<rect x="33" y="3" width="1" height="1" fill="#B97A57" />
<rect x="34" y="3" width="1" height="1" fill="#B97A57" />
<rect x="35" y="3" width="1" height="1" fill="#000000" />
<rect x="36" y="3" width="1" height="1" fill="#000000" />
<rect x="37" y="3" width="1" height="1" fill="#5FCDE4" />
<rect x="9" y="4" width="1" height="1" fill="#5FCDE4" />
<rect x="10" y="4" width="1" height="1" fill="#000000" />
<rect x="11" y="4" width="1" height="1" fill="#AE6D4B" />
<rect x="12" y="4" width="1" height="1" fill="#AD6D49" />
<rect x="13" y="4" width="1" height="1" fill="#AF6F4C" />
<rect x="14" y="4" width="1" height="1" fill="#B67652" />
<rect x="15" y="4" width="1" height="1" fill="#B67652" />
<rect x="16" y="4" width="1" height="1" fill="#B97A57" />
<rect x="17" y="4" width="1" height="1" fill="#B97A57" />
<rect x="18" y="4" width="1" height="1" fill="#B97A57" />
<rect x="19" y="4" width="1" height="1" fill="#B97A57" />
<rect x="20" y="4" width="1" height="1" fill="#B97A57" />
<rect x="21" y="4" width="1" height="1" fill="#B97A57" />
<rect x="22" y="4" width="1" height="1" fill="#B97A57" />
<rect x="23" y="4" width="1" height="1" fill="#B97A57" />
<rect x="24" y="4" width="1" height="1" fill="#B87956" />
<rect x="25" y="4" width="1" height="1" fill="#B97A57" />
<rect x="26" y="4" width="1" height="1" fill="#B97A57" />
<rect x="27" y="4" width="1" height="1" fill="#BD8460" />
<rect x="28" y="4" width="1" height="1" fill="#CA9C73" />
<rect x="29" y="4" width="1" height="1" fill="#DFC29A" />
<rect x="30" y="4" width="1" height="1" fill="#DFC29A" />
<rect x="31" y="4" width="1" height="1" fill="#DFC29A" />
<rect x="32" y="4" width="1" height="1" fill="#DFC29A" />
<rect x="33" y="4" width="1" height="1" fill="#CA9C73" />
<rect x="34" y="4" width="1" height="1" fill="#C4946E" />
<rect x="35" y="4" width="1" height="1" fill="#B97A57" />
<rect x="36" y="4" width="1" height="1" fill="#B97A57" />
<rect x="37" y="4" width="1" height="1" fill="#000000" />
<rect x="38" y="4" width="1" height="1" fill="#5FCDE4" />
<rect x="8" y="5" width="1" height="1" fill="#5FCDE4" />
<rect x="9" y="5" width="1" height="1" fill="#000000" />
<rect x="10" y="5" width="1" height="1" fill="#AC6C48" />
<rect x="11" y="5" width="1" height="1" fill="#AD6B4A" />
<rect x="12" y="5" width="1" height="1" fill="#AF6F4C" />
<rect x="13" y="5" width="1" height="1" fill="#B67652" />
<rect x="14" y="5" width="1" height="1" fill="#B97A57" />
<rect x="15" y="5" width="1" height="1" fill="#B97A57" />
<rect x="16" y="5" width="1" height="1" fill="#B97A57" />
<rect x="17" y="5" width="1" height="1" fill="#B97A57" />
<rect x="18" y="5" width="1" height="1" fill="#B97A57" />
<rect x="19" y="5" width="1" height="1" fill="#B97A57" />
<rect x="20" y="5" width="1" height="1" fill="#B97A57" />
<rect x="21" y="5" width="1" height="1" fill="#B97A57" />
<rect x="22" y="5" width="1" height="1" fill="#B97A57" />
<rect x="23" y="5" width="1" height="1" fill="#B97A57" />
<rect x="24" y="5" width="1" height="1" fill="#B97A57" />
<rect x="25" y="5" width="1" height="1" fill="#B97A57" />
<rect x="26" y="5" width="1" height="1" fill="#BD8460" />
<rect x="27" y="5" width="1" height="1" fill="#DEC394" />
<rect x="28" y="5" width="1" height="1" fill="#E3CCA1" />
<rect x="29" y="5" width="1" height="1" fill="#E8D7A4" />
<rect x="30" y="5" width="1" height="1" fill="#E9D8AA" />
<rect x="31" y="5" width="1" height="1" fill="#E9D8AA" />
<rect x="32" y="5" width="1" height="1" fill="#E9D8AA" />
<rect x="33" y="5" width="1" height="1" fill="#E9D8AA" />
<rect x="34" y="5" width="1" height="1" fill="#E9D8AA" />
<rect x="35" y="5" width="1" height="1" fill="#DFC29A" />
<rect x="36" y="5" width="1" height="1" fill="#CA9C73" />
<rect x="37" y="5" width="1" height="1" fill="#B97A57" />
<rect x="38" y="5" width="1" height="1" fill="#000000" />
<rect x="39" y="5" width="1" height="1" fill="#5FCDE4" />
<rect x="7" y="6" width="1" height="1" fill="#5FCDE4" />
<rect x="8" y="6" width="1" height="1" fill="#000000" />
<rect x="9" y="6" width="1" height="1" fill="#AC6C49" />
<rect x="10" y="6" width="1" height="1" fill="#AB6A47" />
<rect x="11" y="6" width="1" height="1" fill="#AF6F4C" />
<rect x="12" y="6" width="1" height="1" fill="#B97A57" />
<rect x="13" y="6" width="1" height="1" fill="#B97A57" />
<rect x="14" y="6" width="1" height="1" fill="#B97A57" />
<rect x="15" y="6" width="1" height="1" fill="#B97A57" />
<rect x="16" y="6" width="1" height="1" fill="#B97A57" />
<rect x="17" y="6" width="1" height="1" fill="#B97A57" />
<rect x="18" y="6" width="1" height="1" fill="#B97A57" />
<rect x="19" y="6" width="1" height="1" fill="#B97A57" />
<rect x="20" y="6" width="1" height="1" fill="#B97A57" />
<rect x="21" y="6" width="1" height="1" fill="#B97A57" />
<rect x="22" y="6" width="1" height="1" fill="#B97A57" />
<rect x="23" y="6" width="1" height="1" fill="#B97A57" />
<rect x="24" y="6" width="1" height="1" fill="#B97A57" />
<rect x="25" y="6" width="1" height="1" fill="#B97A57" />
<rect x="26" y="6" width="1" height="1" fill="#B97A57" />
<rect x="27" y="6" width="1" height="1" fill="#B97A57" />
<rect x="28" y="6" width="1" height="1" fill="#B67653" />
<rect x="29" y="6" width="1" height="1" fill="#D5B186" />
<rect x="30" y="6" width="1" height="1" fill="#DFC29A" />
<rect x="31" y="6" width="1" height="1" fill="#E9D8AA" />
<rect x="32" y="6" width="1" height="1" fill="#E9D8AA" />
<rect x="33" y="6" width="1" height="1" fill="#E9D8AA" />
<rect x="34" y="6" width="1" height="1" fill="#E9D8AA" />
<rect x="35" y="6" width="1" height="1" fill="#E9D8AA" />
<rect x="36" y="6" width="1" height="1" fill="#E3CCA1" />
<rect x="37" y="6" width="1" height="1" fill="#DFC29A" />
<rect x="38" y="6" width="1" height="1" fill="#B97A57" />
<rect x="39" y="6" width="1" height="1" fill="#000000" />
<rect x="40" y="6" width="1" height="1" fill="#5FCDE4" />
<rect x="6" y="7" width="1" height="1" fill="#5FCDE4" />
<rect x="7" y="7" width="1" height="1" fill="#000000" />
<rect x="8" y="7" width="1" height="1" fill="#AD6C49" />
<rect x="9" y="7" width="1" height="1" fill="#AB6946" />
<rect x="10" y="7" width="1" height="1" fill="#AF6F4C" />
<rect x="11" y="7" width="1" height="1" fill="#B67652" />
<rect x="12" y="7" width="1" height="1" fill="#B97A57" />
<rect x="13" y="7" width="1" height="1" fill="#B97A57" />
<rect x="14" y="7" width="1" height="1" fill="#B97A57" />
<rect x="15" y="7" width="1" height="1" fill="#B97A57" />
<rect x="16" y="7" width="1" height="1" fill="#B97A57" />
<rect x="17" y="7" width="1" height="1" fill="#B97A57" />
<rect x="18" y="7" width="1" height="1" fill="#B97A57" />
<rect x="19" y="7" width="1" height="1" fill="#B97A57" />
<rect x="20" y="7" width="1" height="1" fill="#B97A57" />
<rect x="21" y="7" width="1" height="1" fill="#B97A57" />
<rect x="22" y="7" width="1" height="1" fill="#B97A57" />
<rect x="23" y="7" width="1" height="1" fill="#B97A57" />
<rect x="24" y="7" width="1" height="1" fill="#B97A57" />
<rect x="25" y="7" width="1" height="1" fill="#B97A57" />
<rect x="26" y="7" width="1" height="1" fill="#B97A57" />
<rect x="27" y="7" width="1" height="1" fill="#B97A57" />
<rect x="28" y="7" width="1" height="1" fill="#B97A57" />
<rect x="29" y="7" width="1" height="1" fill="#B97A57" />
<rect x="30" y="7" width="1" height="1" fill="#B97A57" />
<rect x="31" y="7" width="1" height="1" fill="#D9BA8D" />
<rect x="32" y="7" width="1" height="1" fill="#DFC29A" />
<rect x="33" y="7" width="1" height="1" fill="#E9D8AA" />
<rect x="34" y="7" width="1" height="1" fill="#E9D8AA" />
<rect x="35" y="7" width="1" height="1" fill="#E9D8AA" />
<rect x="36" y="7" width="1" height="1" fill="#E9D8AA" />
<rect x="37" y="7" width="1" height="1" fill="#E9D8AA" />
<rect x="38" y="7" width="1" height="1" fill="#E3CCA1" />
<rect x="39" y="7" width="1" height="1" fill="#CA9C73" />
<rect x="40" y="7" width="1" height="1" fill="#000000" />
<rect x="41" y="7" width="1" height="1" fill="#5FCDE4" />
<rect x="5" y="8" width="1" height="1" fill="#5FCDE4" />
<rect x="6" y="8" width="1" height="1" fill="#000000" />
<rect x="7" y="8" width="1" height="1" fill="#B37350" />
<rect x="8" y="8" width="1" height="1" fill="#AE6C49" />
<rect x="9" y="8" width="1" height="1" fill="#AF6F4C" />
<rect x="10" y="8" width="1" height="1" fill="#B67652" />
<rect x="11" y="8" width="1" height="1" fill="#B97A57" />
<rect x="12" y="8" width="1" height="1" fill="#B97A57" />
<rect x="13" y="8" width="1" height="1" fill="#B97A57" />
<rect x="14" y="8" width="1" height="1" fill="#B97A57" />
<rect x="15" y="8" width="1" height="1" fill="#B97A57" />
<rect x="16" y="8" width="1" height="1" fill="#B97A57" />
<rect x="17" y="8" width="1" height="1" fill="#B97A57" />
<rect x="18" y="8" width="1" height="1" fill="#B97A57" />
<rect x="19" y="8" width="1" height="1" fill="#B97A57" />
<rect x="20" y="8" width="1" height="1" fill="#B97A57" />
<rect x="21" y="8" width="1" height="1" fill="#B97A57" />
<rect x="22" y="8" width="1" height="1" fill="#B97A57" />
<rect x="23" y="8" width="1" height="1" fill="#B97A57" />
<rect x="24" y="8" width="1" height="1" fill="#B97A57" />
<rect x="25" y="8" width="1" height="1" fill="#B97A57" />
<rect x="26" y="8" width="1" height="1" fill="#B97A57" />
<rect x="27" y="8" width="1" height="1" fill="#B97A57" />
<rect x="28" y="8" width="1" height="1" fill="#B97A57" />
<rect x="29" y="8" width="1" height="1" fill="#B97A57" />
<rect x="30" y="8" width="1" height="1" fill="#B97A57" />
<rect x="31" y="8" width="1" height="1" fill="#B97A57" />
<rect x="32" y="8" width="1" height="1" fill="#B97A57" />
<rect x="33" y="8" width="1" height="1" fill="#DFC29A" />
<rect x="34" y="8" width="1" height="1" fill="#DFC29A" />
<rect x="35" y="8" width="1" height="1" fill="#E9D8AA" />
<rect x="36" y="8" width="1" height="1" fill="#E9D8AA" />
<rect x="37" y="8" width="1" height="1" fill="#E9D8AA" />
<rect x="38" y="8" width="1" height="1" fill="#E9D8AA" />
<rect x="39" y="8" width="1" height="1" fill="#E3CCA1" />
<rect x="40" y="8" width="1" height="1" fill="#CA9C73" />
<rect x="41" y="8" width="1" height="1" fill="#000000" />
<rect x="42" y="8" width="1" height="1" fill="#5FCDE4" />
<rect x="4" y="9" width="1" height="1" fill="#5FCDE4" />
<rect x="5" y="9" width="1" height="1" fill="#000000" />
<rect x="6" y="9" width="1" height="1" fill="#BE8464" />
<rect x="7" y="9" width="1" height="1" fill="#BE8464" />
<rect x="8" y="9" width="1" height="1" fill="#B67652" />
<rect x="9" y="9" width="1" height="1" fill="#B67652" />
<rect x="10" y="9" width="1" height="1" fill="#B97956" />
<rect x="11" y="9" width="1" height="1" fill="#B97A57" />
<rect x="12" y="9" width="1" height="1" fill="#B97A57" />
<rect x="13" y="9" width="1" height="1" fill="#B97A57" />
<rect x="14" y="9" width="1" height="1" fill="#B97A57" />
<rect x="15" y="9" width="1" height="1" fill="#B97A57" />
<rect x="16" y="9" width="1" height="1" fill="#B97A57" />
<rect x="17" y="9" width="1" height="1" fill="#B97A57" />
<rect x="18" y="9" width="1" height="1" fill="#B97A57" />
<rect x="19" y="9" width="1" height="1" fill="#B97A57" />
<rect x="20" y="9" width="1" height="1" fill="#B97A57" />
<rect x="21" y="9" width="1" height="1" fill="#B97A57" />
<rect x="22" y="9" width="1" height="1" fill="#B97A57" />
<rect x="23" y="9" width="1" height="1" fill="#B97A57" />
<rect x="24" y="9" width="1" height="1" fill="#B97A57" />
<rect x="25" y="9" width="1" height="1" fill="#B97A57" />
<rect x="26" y="9" width="1" height="1" fill="#B97A57" />
<rect x="27" y="9" width="1" height="1" fill="#B97A57" />
<rect x="28" y="9" width="1" height="1" fill="#B97A57" />
<rect x="29" y="9" width="1" height="1" fill="#B97A57" />
<rect x="30" y="9" width="1" height="1" fill="#B87956" />
<rect x="31" y="9" width="1" height="1" fill="#B77856" />
<rect x="32" y="9" width="1" height="1" fill="#B97A57" />
<rect x="33" y="9" width="1" height="1" fill="#B97A57" />
<rect x="34" y="9" width="1" height="1" fill="#CA9C73" />
<rect x="35" y="9" width="1" height="1" fill="#DFC29A" />
<rect x="36" y="9" width="1" height="1" fill="#E9D8AA" />
<rect x="37" y="9" width="1" height="1" fill="#E9D8AA" />
<rect x="38" y="9" width="1" height="1" fill="#E9D8AA" />
<rect x="39" y="9" width="1" height="1" fill="#E9D8AA" />
<rect x="40" y="9" width="1" height="1" fill="#E3CCA1" />
<rect x="41" y="9" width="1" height="1" fill="#C99A71" />
<rect x="42" y="9" width="1" height="1" fill="#000000" />
<rect x="43" y="9" width="1" height="1" fill="#5FCDE4" />
<rect x="4" y="10" width="1" height="1" fill="#5FCDE4" />
<rect x="5" y="10" width="1" height="1" fill="#000000" />
<rect x="6" y="10" width="1" height="1" fill="#BE8464" />
<rect x="7" y="10" width="1" height="1" fill="#BE8464" />
<rect x="8" y="10" width="1" height="1" fill="#BE8464" />
<rect x="9" y="10" width="1" height="1" fill="#BE8464" />
<rect x="10" y="10" width="1" height="1" fill="#C8957A" />
<rect x="11" y="10" width="1" height="1" fill="#B4734E" />
<rect x="12" y="10" width="1" height="1" fill="#B67652" />
<rect x="13" y="10" width="1" height="1" fill="#B87855" />
<rect x="14" y="10" width="1" height="1" fill="#B87956" />
<rect x="15" y="10" width="1" height="1" fill="#B97A57" />
<rect x="16" y="10" width="1" height="1" fill="#B97A57" />
<rect x="17" y="10" width="1" height="1" fill="#B97A57" />
<rect x="18" y="10" width="1" height="1" fill="#B97A57" />
<rect x="19" y="10" width="1" height="1" fill="#B97A57" />
<rect x="20" y="10" width="1" height="1" fill="#B97A57" />
<rect x="21" y="10" width="1" height="1" fill="#B97A57" />
<rect x="22" y="10" width="1" height="1" fill="#B97A57" />
<rect x="23" y="10" width="1" height="1" fill="#B97A57" />
<rect x="24" y="10" width="1" height="1" fill="#B97A57" />
<rect x="25" y="10" width="1" height="1" fill="#B97A57" />
<rect x="26" y="10" width="1" height="1" fill="#B97A57" />
<rect x="27" y="10" width="1" height="1" fill="#B97A57" />
<rect x="28" y="10" width="1" height="1" fill="#B97A57" />
<rect x="29" y="10" width="1" height="1" fill="#B97A57" />
<rect x="30" y="10" width="1" height="1" fill="#B97A57" />
<rect x="31" y="10" width="1" height="1" fill="#B97A57" />
<rect x="32" y="10" width="1" height="1" fill="#B77955" />
<rect x="33" y="10" width="1" height="1" fill="#B77855" />
<rect x="34" y="10" width="1" height="1" fill="#B97A57" />
<rect x="35" y="10" width="1" height="1" fill="#B67653" />
<rect x="36" y="10" width="1" height="1" fill="#DFC29A" />
<rect x="37" y="10" width="1" height="1" fill="#E9D8AA" />
<rect x="38" y="10" width="1" height="1" fill="#E9D8AA" />
<rect x="39" y="10" width="1" height="1" fill="#E9D8AA" />
<rect x="40" y="10" width="1" height="1" fill="#E9D8AA" />
<rect x="41" y="10" width="1" height="1" fill="#E3CCA1" />
<rect x="42" y="10" width="1" height="1" fill="#000000" />
<rect x="43" y="10" width="1" height="1" fill="#5FCDE4" />
<rect x="4" y="11" width="1" height="1" fill="#5FCDE4" />
<rect x="5" y="11" width="1" height="1" fill="#000000" />
<rect x="6" y="11" width="1" height="1" fill="#BE8464" />
<rect x="7" y="11" width="1" height="1" fill="#BE8464" />
<rect x="8" y="11" width="1" height="1" fill="#BE8464" />
<rect x="9" y="11" width="1" height="1" fill="#CC9A81" />
<rect x="10" y="11" width="1" height="1" fill="#CEA188" />
<rect x="11" y="11" width="1" height="1" fill="#C9987D" />
<rect x="12" y="11" width="1" height="1" fill="#C8957A" />
<rect x="13" y="11" width="1" height="1" fill="#BF8667" />
<rect x="14" y="11" width="1" height="1" fill="#B87A57" />
<rect x="15" y="11" width="1" height="1" fill="#B4734D" />
<rect x="16" y="11" width="1" height="1" fill="#B77651" />
<rect x="17" y="11" width="1" height="1" fill="#B87855" />
<rect x="18" y="11" width="1" height="1" fill="#B87956" />
<rect x="19" y="11" width="1" height="1" fill="#B97A57" />
<rect x="20" y="11" width="1" height="1" fill="#B97A57" />
<rect x="21" y="11" width="1" height="1" fill="#B97A57" />
<rect x="22" y="11" width="1" height="1" fill="#B97A57" />
<rect x="23" y="11" width="1" height="1" fill="#B97A57" />
<rect x="24" y="11" width="1" height="1" fill="#B97A57" />
<rect x="25" y="11" width="1" height="1" fill="#B97A57" />
<rect x="26" y="11" width="1" height="1" fill="#B97A57" />
<rect x="27" y="11" width="1" height="1" fill="#B97A57" />
<rect x="28" y="11" width="1" height="1" fill="#B97A57" />
<rect x="29" y="11" width="1" height="1" fill="#B97A57" />
<rect x="30" y="11" width="1" height="1" fill="#B97A57" />
<rect x="31" y="11" width="1" height="1" fill="#B97956" />
<rect x="32" y="11" width="1" height="1" fill="#B87956" />
<rect x="33" y="11" width="1" height="1" fill="#B87956" />
<rect x="34" y="11" width="1" height="1" fill="#B77754" />
<rect x="35" y="11" width="1" height="1" fill="#B97A57" />
<rect x="36" y="11" width="1" height="1" fill="#BF865F" />
<rect x="37" y="11" width="1" height="1" fill="#DFC29A" />
<rect x="38" y="11" width="1" height="1" fill="#E9D8AA" />
<rect x="39" y="11" width="1" height="1" fill="#E9D8AA" />
<rect x="40" y="11" width="1" height="1" fill="#EADDAB" />
<rect x="41" y="11" width="1" height="1" fill="#E9D8AA" />
<rect x="42" y="11" width="1" height="1" fill="#000000" />
<rect x="43" y="11" width="1" height="1" fill="#5FCDE4" />
<rect x="4" y="12" width="1" height="1" fill="#5FCDE4" />
<rect x="5" y="12" width="1" height="1" fill="#000000" />
<rect x="6" y="12" width="1" height="1" fill="#BE8464" />
<rect x="7" y="12" width="1" height="1" fill="#BE8464" />
<rect x="8" y="12" width="1" height="1" fill="#BE8464" />
<rect x="9" y="12" width="1" height="1" fill="#CC9B81" />
<rect x="10" y="12" width="1" height="1" fill="#CC9C83" />
<rect x="11" y="12" width="1" height="1" fill="#CD9E84" />
<rect x="12" y="12" width="1" height="1" fill="#CC9D84" />
<rect x="13" y="12" width="1" height="1" fill="#CC9E85" />
<rect x="14" y="12" width="1" height="1" fill="#CEA188" />
<rect x="15" y="12" width="1" height="1" fill="#CE9F86" />
<rect x="16" y="12" width="1" height="1" fill="#C49073" />
<rect x="17" y="12" width="1" height="1" fill="#BE8262" />
<rect x="18" y="12" width="1" height="1" fill="#B77855" />
<rect x="19" y="12" width="1" height="1" fill="#B67652" />
<rect x="20" y="12" width="1" height="1" fill="#B67652" />
<rect x="21" y="12" width="1" height="1" fill="#B97A57" />
<rect x="22" y="12" width="1" height="1" fill="#B97A57" />
<rect x="23" y="12" width="1" height="1" fill="#B97A57" />
<rect x="24" y="12" width="1" height="1" fill="#B97A57" />
<rect x="25" y="12" width="1" height="1" fill="#B97A57" />
<rect x="26" y="12" width="1" height="1" fill="#B97A57" />
<rect x="27" y="12" width="1" height="1" fill="#B97A57" />
<rect x="28" y="12" width="1" height="1" fill="#B97A57" />
<rect x="29" y="12" width="1" height="1" fill="#B6744F" />
<rect x="30" y="12" width="1" height="1" fill="#B5724E" />
<rect x="31" y="12" width="1" height="1" fill="#B67652" />
<rect x="32" y="12" width="1" height="1" fill="#B87957" />
<rect x="33" y="12" width="1" height="1" fill="#BA7C5A" />
<rect x="34" y="12" width="1" height="1" fill="#BC8261" />
<rect x="35" y="12" width="1" height="1" fill="#C1896A" />
<rect x="36" y="12" width="1" height="1" fill="#C0876B" />
<rect x="37" y="12" width="1" height="1" fill="#CDA081" />
<rect x="38" y="12" width="1" height="1" fill="#E3CCA1" />
<rect x="39" y="12" width="1" height="1" fill="#E9DAA8" />
<rect x="40" y="12" width="1" height="1" fill="#E9D8AA" />
<rect x="41" y="12" width="1" height="1" fill="#E9D8AA" />
<rect x="42" y="12" width="1" height="1" fill="#000000" />
<rect x="43" y="12" width="1" height="1" fill="#5FCDE4" />
<rect x="4" y="13" width="1" height="1" fill="#5FCDE4" />
<rect x="5" y="13" width="1" height="1" fill="#000000" />
<rect x="6" y="13" width="1" height="1" fill="#B87957" />
<rect x="7" y="13" width="1" height="1" fill="#BE8464" />
<rect x="8" y="13" width="1" height="1" fill="#BE8464" />
<rect x="9" y="13" width="1" height="1" fill="#C69176" />
<rect x="10" y="13" width="1" height="1" fill="#C69176" />
<rect x="11" y="13" width="1" height="1" fill="#C79277" />
<rect x="12" y="13" width="1" height="1" fill="#CB9B80" />
<rect x="13" y="13" width="1" height="1" fill="#CC9D84" />
<rect x="14" y="13" width="1" height="1" fill="#CC9C82" />
<rect x="15" y="13" width="1" height="1" fill="#CC9C81" />
<rect x="16" y="13" width="1" height="1" fill="#CC9D84" />
<rect x="17" y="13" width="1" height="1" fill="#CD9F86" />
<rect x="18" y="13" width="1" height="1" fill="#CFA189" />
<rect x="19" y="13" width="1" height="1" fill="#CE9F86" />
<rect x="20" y="13" width="1" height="1" fill="#CB9C82" />
<rect x="21" y="13" width="1" height="1" fill="#C9997E" />
<rect x="22" y="13" width="1" height="1" fill="#C69174" />
<rect x="23" y="13" width="1" height="1" fill="#C58F72" />
<rect x="24" y="13" width="1" height="1" fill="#C39073" />
<rect x="25" y="13" width="1" height="1" fill="#C38E70" />
<rect x="26" y="13" width="1" height="1" fill="#C48D70" />
<rect x="27" y="13" width="1" height="1" fill="#C28C6E" />
<rect x="28" y="13" width="1" height="1" fill="#C58F72" />
<rect x="29" y="13" width="1" height="1" fill="#C8957A" />
<rect x="30" y="13" width="1" height="1" fill="#CC9C83" />
<rect x="31" y="13" width="1" height="1" fill="#CC9C82" />
<rect x="32" y="13" width="1" height="1" fill="#CC9D83" />
<rect x="33" y="13" width="1" height="1" fill="#CD9F86" />
<rect x="34" y="13" width="1" height="1" fill="#CD9E86" />
<rect x="35" y="13" width="1" height="1" fill="#CC9D83" />
<rect x="36" y="13" width="1" height="1" fill="#CC9D82" />
<rect x="37" y="13" width="1" height="1" fill="#C8957D" />
<rect x="38" y="13" width="1" height="1" fill="#CFA683" />
<rect x="39" y="13" width="1" height="1" fill="#E3CCA1" />
<rect x="40" y="13" width="1" height="1" fill="#E9D8AA" />
<rect x="41" y="13" width="1" height="1" fill="#E3CCA1" />
<rect x="42" y="13" width="1" height="1" fill="#000000" />
<rect x="43" y="13" width="1" height="1" fill="#5FCDE4" />
<rect x="4" y="14" width="1" height="1" fill="#5FCDE4" />
<rect x="5" y="14" width="1" height="1" fill="#000000" />
<rect x="6" y="14" width="1" height="1" fill="#B77755" />
<rect x="7" y="14" width="1" height="1" fill="#BE8464" />
<rect x="8" y="14" width="1" height="1" fill="#BE8464" />
<rect x="9" y="14" width="1" height="1" fill="#BE8464" />
<rect x="10" y="14" width="1" height="1" fill="#C58D72" />
<rect x="11" y="14" width="1" height="1" fill="#C38C70" />
<rect x="12" y="14" width="1" height="1" fill="#C28B6E" />
<rect x="13" y="14" width="1" height="1" fill="#C69073" />
<rect x="14" y="14" width="1" height="1" fill="#CA997F" />
<rect x="15" y="14" width="1" height="1" fill="#CD9E83" />
<rect x="16" y="14" width="1" height="1" fill="#CC9C83" />
<rect x="17" y="14" width="1" height="1" fill="#CC9C81" />
<rect x="18" y="14" width="1" height="1" fill="#CB9B81" />
<rect x="19" y="14" width="1" height="1" fill="#CC9C82" />
<rect x="20" y="14" width="1" height="1" fill="#CC9B82" />
<rect x="21" y="14" width="1" height="1" fill="#CC9C83" />
<rect x="22" y="14" width="1" height="1" fill="#CC9C83" />
<rect x="23" y="14" width="1" height="1" fill="#CC9D83" />
<rect x="24" y="14" width="1" height="1" fill="#CD9D84" />
<rect x="25" y="14" width="1" height="1" fill="#CC9E86" />
<rect x="26" y="14" width="1" height="1" fill="#CD9E85" />
<rect x="27" y="14" width="1" height="1" fill="#CC9E84" />
<rect x="28" y="14" width="1" height="1" fill="#CD9E85" />
<rect x="29" y="14" width="1" height="1" fill="#CC9D84" />
<rect x="30" y="14" width="1" height="1" fill="#CC9E83" />
<rect x="31" y="14" width="1" height="1" fill="#CD9E84" />
<rect x="32" y="14" width="1" height="1" fill="#CC9D82" />
<rect x="33" y="14" width="1" height="1" fill="#CC9D84" />
<rect x="34" y="14" width="1" height="1" fill="#CD9D83" />
<rect x="35" y="14" width="1" height="1" fill="#CD9D84" />
<rect x="36" y="14" width="1" height="1" fill="#CC9C83" />
<rect x="37" y="14" width="1" height="1" fill="#CB9B81" />
<rect x="38" y="14" width="1" height="1" fill="#D3AE8E" />
<rect x="39" y="14" width="1" height="1" fill="#CFA683" />
<rect x="40" y="14" width="1" height="1" fill="#CFA683" />
<rect x="41" y="14" width="1" height="1" fill="#BE845F" />
<rect x="42" y="14" width="1" height="1" fill="#000000" />
<rect x="43" y="14" width="1" height="1" fill="#5FCDE4" />
<rect x="5" y="15" width="1" height="1" fill="#5FCDE4" />
<rect x="6" y="15" width="1" height="1" fill="#000000" />
<rect x="7" y="15" width="1" height="1" fill="#B97A57" />
<rect x="8" y="15" width="1" height="1" fill="#BE8364" />
<rect x="9" y="15" width="1" height="1" fill="#BE8464" />
<rect x="10" y="15" width="1" height="1" fill="#C69176" />
<rect x="11" y="15" width="1" height="1" fill="#C48C70" />
<rect x="12" y="15" width="1" height="1" fill="#C38D70" />
<rect x="13" y="15" width="1" height="1" fill="#C38D72" />
<rect x="14" y="15" width="1" height="1" fill="#C38A6E" />
<rect x="15" y="15" width="1" height="1" fill="#C38C6F" />
<rect x="16" y="15" width="1" height="1" fill="#C89779" />
<rect x="17" y="15" width="1" height="1" fill="#CB9A80" />
<rect x="18" y="15" width="1" height="1" fill="#CD9E84" />
<rect x="19" y="15" width="1" height="1" fill="#CC9D83" />
<rect x="20" y="15" width="1" height="1" fill="#CB9B82" />
<rect x="21" y="15" width="1" height="1" fill="#CC9D83" />
<rect x="22" y="15" width="1" height="1" fill="#CC9D83" />
<rect x="23" y="15" width="1" height="1" fill="#CC9D82" />
<rect x="24" y="15" width="1" height="1" fill="#CA9B82" />
<rect x="25" y="15" width="1" height="1" fill="#CA9B82" />
<rect x="26" y="15" width="1" height="1" fill="#CA9B82" />
<rect x="27" y="15" width="1" height="1" fill="#CA9B82" />
<rect x="28" y="15" width="1" height="1" fill="#CA9B82" />
<rect x="29" y="15" width="1" height="1" fill="#CA9B82" />
<rect x="30" y="15" width="1" height="1" fill="#CC9D84" />
<rect x="31" y="15" width="1" height="1" fill="#CC9D84" />
<rect x="32" y="15" width="1" height="1" fill="#C38C6F" />
<rect x="33" y="15" width="1" height="1" fill="#C38A6E" />
<rect x="34" y="15" width="1" height="1" fill="#C38D72" />
<rect x="35" y="15" width="1" height="1" fill="#C38D70" />
<rect x="36" y="15" width="1" height="1" fill="#C48C70" />
<rect x="37" y="15" width="1" height="1" fill="#C69176" />
<rect x="38" y="15" width="1" height="1" fill="#BE8464" />
<rect x="39" y="15" width="1" height="1" fill="#BE8364" />
<rect x="40" y="15" width="1" height="1" fill="#BE845F" />
<rect x="41" y="15" width="1" height="1" fill="#000000" />
<rect x="42" y="15" width="1" height="1" fill="#5FCDE4" />
<rect x="6" y="16" width="1" height="1" fill="#5FCDE4" />
<rect x="7" y="16" width="1" height="1" fill="#000000" />
<rect x="8" y="16" width="1" height="1" fill="#B97A57" />
<rect x="9" y="16" width="1" height="1" fill="#BE8364" />
<rect x="10" y="16" width="1" height="1" fill="#BE8364" />
<rect x="11" y="16" width="1" height="1" fill="#BE8364" />
<rect x="12" y="16" width="1" height="1" fill="#C48B6E" />
<rect x="13" y="16" width="1" height="1" fill="#C48B6E" />
<rect x="14" y="16" width="1" height="1" fill="#C38B6F" />
<rect x="15" y="16" width="1" height="1" fill="#C48C6F" />
<rect x="16" y="16" width="1" height="1" fill="#C2896F" />
<rect x="17" y="16" width="1" height="1" fill="#C28B6D" />
<rect x="18" y="16" width="1" height="1" fill="#C28B6E" />
<rect x="19" y="16" width="1" height="1" fill="#C28B6E" />
<rect x="20" y="16" width="1" height="1" fill="#C38D71" />
<rect x="21" y="16" width="1" height="1" fill="#C38D71" />
<rect x="22" y="16" width="1" height="1" fill="#C38D71" />
<rect x="23" y="16" width="1" height="1" fill="#C79479" />
<rect x="24" y="16" width="1" height="1" fill="#C79379" />
<rect x="25" y="16" width="1" height="1" fill="#C69176" />
<rect x="26" y="16" width="1" height="1" fill="#C8957A" />
<rect x="27" y="16" width="1" height="1" fill="#C8957A" />
<rect x="28" y="16" width="1" height="1" fill="#C8957A" />
<rect x="29" y="16" width="1" height="1" fill="#C58F72" />
<rect x="30" y="16" width="1" height="1" fill="#C38D71" />
<rect x="31" y="16" width="1" height="1" fill="#C38D71" />
<rect x="32" y="16" width="1" height="1" fill="#C48C6F" />
<rect x="33" y="16" width="1" height="1" fill="#C38B6F" />
<rect x="34" y="16" width="1" height="1" fill="#C48B6E" />
<rect x="35" y="16" width="1" height="1" fill="#C48B6E" />
<rect x="36" y="16" width="1" height="1" fill="#BE8364" />
<rect x="37" y="16" width="1" height="1" fill="#BE8364" />
<rect x="38" y="16" width="1" height="1" fill="#BE8364" />
<rect x="39" y="16" width="1" height="1" fill="#B97A57" />
<rect x="40" y="16" width="1" height="1" fill="#000000" />
<rect x="41" y="16" width="1" height="1" fill="#5FCDE4" />
<rect x="7" y="17" width="1" height="1" fill="#5FCDE4" />
<rect x="8" y="17" width="1" height="1" fill="#000000" />
<rect x="9" y="17" width="1" height="1" fill="#B97A57" />
<rect x="10" y="17" width="1" height="1" fill="#B97A57" />
<rect x="11" y="17" width="1" height="1" fill="#BE8364" />
<rect x="12" y="17" width="1" height="1" fill="#BE8364" />
<rect x="13" y="17" width="1" height="1" fill="#C38C6F" />
<rect x="14" y="17" width="1" height="1" fill="#C48C6F" />
<rect x="15" y="17" width="1" height="1" fill="#C48C6F" />
<rect x="16" y="17" width="1" height="1" fill="#C48C6E" />
<rect x="17" y="17" width="1" height="1" fill="#C38B6E" />
<rect x="18" y="17" width="1" height="1" fill="#C48B6E" />
<rect x="19" y="17" width="1" height="1" fill="#C38A6D" />
<rect x="20" y="17" width="1" height="1" fill="#C38A6D" />
<rect x="21" y="17" width="1" height="1" fill="#C28A6D" />
<rect x="22" y="17" width="1" height="1" fill="#C28A6C" />
<rect x="23" y="17" width="1" height="1" fill="#C38A6C" />
<rect x="24" y="17" width="1" height="1" fill="#C28A6D" />
<rect x="25" y="17" width="1" height="1" fill="#C38A6D" />
<rect x="26" y="17" width="1" height="1" fill="#C38B6E" />
<rect x="27" y="17" width="1" height="1" fill="#C38B6D" />
<rect x="28" y="17" width="1" height="1" fill="#C38B6E" />
<rect x="29" y="17" width="1" height="1" fill="#C38B6F" />
<rect x="30" y="17" width="1" height="1" fill="#C28B6E" />
<rect x="31" y="17" width="1" height="1" fill="#C38B6D" />
<rect x="32" y="17" width="1" height="1" fill="#C48C6F" />
<rect x="33" y="17" width="1" height="1" fill="#C48C6F" />
<rect x="34" y="17" width="1" height="1" fill="#C38C6F" />
<rect x="35" y="17" width="1" height="1" fill="#BE8364" />
<rect x="36" y="17" width="1" height="1" fill="#BE8364" />
<rect x="37" y="17" width="1" height="1" fill="#B97A57" />
<rect x="38" y="17" width="1" height="1" fill="#B97A57" />
<rect x="39" y="17" width="1" height="1" fill="#000000" />
<rect x="40" y="17" width="1" height="1" fill="#5FCDE4" />
<rect x="8" y="18" width="1" height="1" fill="#5FCDE4" />
<rect x="9" y="18" width="1" height="1" fill="#000000" />
<rect x="10" y="18" width="1" height="1" fill="#B77753" />
<rect x="11" y="18" width="1" height="1" fill="#B97A57" />
<rect x="12" y="18" width="1" height="1" fill="#BE8364" />
<rect x="13" y="18" width="1" height="1" fill="#BE8364" />
<rect x="14" y="18" width="1" height="1" fill="#BE8364" />
<rect x="15" y="18" width="1" height="1" fill="#BE8364" />
<rect x="16" y="18" width="1" height="1" fill="#C48C6F" />
<rect x="17" y="18" width="1" height="1" fill="#C48C6F" />
<rect x="18" y="18" width="1" height="1" fill="#C48C6F" />
<rect x="19" y="18" width="1" height="1" fill="#C48C6F" />
<rect x="20" y="18" width="1" height="1" fill="#C48C6F" />
<rect x="21" y="18" width="1" height="1" fill="#C48C6E" />
<rect x="22" y="18" width="1" height="1" fill="#C48C6F" />
<rect x="23" y="18" width="1" height="1" fill="#C48C6F" />
<rect x="24" y="18" width="1" height="1" fill="#C48B6F" />
<rect x="25" y="18" width="1" height="1" fill="#C48C6F" />
<rect x="26" y="18" width="1" height="1" fill="#C48C6F" />
<rect x="27" y="18" width="1" height="1" fill="#C48C6F" />
<rect x="28" y="18" width="1" height="1" fill="#C48C6F" />
<rect x="29" y="18" width="1" height="1" fill="#C48C6F" />
<rect x="30" y="18" width="1" height="1" fill="#C48C6F" />
<rect x="31" y="18" width="1" height="1" fill="#C48C6F" />
<rect x="32" y="18" width="1" height="1" fill="#BE8364" />
<rect x="33" y="18" width="1" height="1" fill="#BE8364" />
<rect x="34" y="18" width="1" height="1" fill="#BE8364" />
<rect x="35" y="18" width="1" height="1" fill="#BE8364" />
<rect x="36" y="18" width="1" height="1" fill="#B97A57" />
<rect x="37" y="18" width="1" height="1" fill="#B77753" />
<rect x="38" y="18" width="1" height="1" fill="#000000" />
<rect x="39" y="18" width="1" height="1" fill="#5FCDE4" />
<rect x="9" y="19" width="1" height="1" fill="#5FCDE4" />
<rect x="10" y="19" width="1" height="1" fill="#000000" />
<rect x="11" y="19" width="1" height="1" fill="#000000" />
<rect x="12" y="19" width="1" height="1" fill="#B97A57" />
<rect x="13" y="19" width="1" height="1" fill="#B97A57" />
<rect x="14" y="19" width="1" height="1" fill="#BE8364" />
<rect x="15" y="19" width="1" height="1" fill="#BE8364" />
<rect x="16" y="19" width="1" height="1" fill="#C1876B" />
<rect x="17" y="19" width="1" height="1" fill="#C18A6F" />
<rect x="18" y="19" width="1" height="1" fill="#C38B6F" />
<rect x="19" y="19" width="1" height="1" fill="#C38B6E" />
<rect x="20" y="19" width="1" height="1" fill="#C48B6F" />
<rect x="21" y="19" width="1" height="1" fill="#C48C6E" />
<rect x="22" y="19" width="1" height="1" fill="#C38B6D" />
<rect x="23" y="19" width="1" height="1" fill="#C28B6F" />
<rect x="24" y="19" width="1" height="1" fill="#C38C6E" />
<rect x="25" y="19" width="1" height="1" fill="#C48C6F" />
<rect x="26" y="19" width="1" height="1" fill="#C38B6F" />
<rect x="27" y="19" width="1" height="1" fill="#C38B6F" />
<rect x="28" y="19" width="1" height="1" fill="#C38B6D" />
<rect x="29" y="19" width="1" height="1" fill="#C38A6E" />
<rect x="30" y="19" width="1" height="1" fill="#C38B6E" />
<rect x="31" y="19" width="1" height="1" fill="#C28A6E" />
<rect x="32" y="19" width="1" height="1" fill="#BE8364" />
<rect x="33" y="19" width="1" height="1" fill="#BE8364" />
<rect x="34" y="19" width="1" height="1" fill="#B97A57" />
<rect x="35" y="19" width="1" height="1" fill="#B97A57" />
<rect x="36" y="19" width="1" height="1" fill="#000000" />
<rect x="37" y="19" width="1" height="1" fill="#000000" />
<rect x="38" y="19" width="1" height="1" fill="#5FCDE4" />
<rect x="10" y="20" width="1" height="1" fill="#5FCDE4" />
<rect x="11" y="20" width="1" height="1" fill="#5FCDE4" />
<rect x="12" y="20" width="1" height="1" fill="#000000" />
<rect x="13" y="20" width="1" height="1" fill="#000000" />
<rect x="14" y="20" width="1" height="1" fill="#000000" />
<rect x="15" y="20" width="1" height="1" fill="#B97A57" />
<rect x="16" y="20" width="1" height="1" fill="#BE8364" />
<rect x="17" y="20" width="1" height="1" fill="#BE8364" />
<rect x="18" y="20" width="1" height="1" fill="#C1876A" />
<rect x="19" y="20" width="1" height="1" fill="#C2886B" />
<rect x="20" y="20" width="1" height="1" fill="#C1896D" />
<rect x="21" y="20" width="1" height="1" fill="#C1896D" />
<rect x="22" y="20" width="1" height="1" fill="#C1886D" />
<rect x="23" y="20" width="1" height="1" fill="#C2896D" />
<rect x="24" y="20" width="1" height="1" fill="#C18A6D" />
<rect x="25" y="20" width="1" height="1" fill="#C28A6D" />
<rect x="26" y="20" width="1" height="1" fill="#C2886C" />
<rect x="27" y="20" width="1" height="1" fill="#C2896D" />
<rect x="28" y="20" width="1" height="1" fill="#C2896D" />
<rect x="29" y="20" width="1" height="1" fill="#C2896C" />
<rect x="30" y="20" width="1" height="1" fill="#C3896C" />
<rect x="31" y="20" width="1" height="1" fill="#C18B6D" />
<rect x="32" y="20" width="1" height="1" fill="#B97A57" />
<rect x="33" y="20" width="1" height="1" fill="#000000" />
<rect x="34" y="20" width="1" height="1" fill="#000000" />
<rect x="35" y="20" width="1" height="1" fill="#000000" />
<rect x="36" y="20" width="1" height="1" fill="#5FCDE4" />
<rect x="37" y="20" width="1" height="1" fill="#5FCDE4" />
<rect x="12" y="21" width="1" height="1" fill="#5FCDE4" />
<rect x="13" y="21" width="1" height="1" fill="#5FCDE4" />
<rect x="14" y="21" width="1" height="1" fill="#5FCDE4" />
<rect x="15" y="21" width="1" height="1" fill="#000000" />
<rect x="16" y="21" width="1" height="1" fill="#000000" />
<rect x="17" y="21" width="1" height="1" fill="#000000" />
<rect x="18" y="21" width="1" height="1" fill="#000000" />
<rect x="19" y="21" width="1" height="1" fill="#000000" />
<rect x="20" y="21" width="1" height="1" fill="#000000" />
<rect x="21" y="21" width="1" height="1" fill="#000000" />
<rect x="22" y="21" width="1" height="1" fill="#000000" />
<rect x="23" y="21" width="1" height="1" fill="#000000" />
<rect x="24" y="21" width="1" height="1" fill="#000000" />
<rect x="25" y="21" width="1" height="1" fill="#000000" />
<rect x="26" y="21" width="1" height="1" fill="#000000" />
<rect x="27" y="21" width="1" height="1" fill="#000000" />
<rect x="28" y="21" width="1" height="1" fill="#000000" />
<rect x="29" y="21" width="1" height="1" fill="#000000" />
<rect x="30" y="21" width="1" height="1" fill="#000000" />
<rect x="31" y="21" width="1" height="1" fill="#000000" />
<rect x="32" y="21" width="1" height="1" fill="#000000" />
<rect x="33" y="21" width="1" height="1" fill="#5FCDE4" />
<rect x="34" y="21" width="1" height="1" fill="#5FCDE4" />
<rect x="35" y="21" width="1" height="1" fill="#5FCDE4" />
<rect x="15" y="22" width="1" height="1" fill="#5FCDE4" />
<rect x="16" y="22" width="1" height="1" fill="#5FCDE4" />
<rect x="17" y="22" width="1" height="1" fill="#5FCDE4" />
<rect x="18" y="22" width="1" height="1" fill="#5FCDE4" />
<rect x="19" y="22" width="1" height="1" fill="#5FCDE4" />
<rect x="20" y="22" width="1" height="1" fill="#5FCDE4" />
<rect x="21" y="22" width="1" height="1" fill="#5FCDE4" />
<rect x="22" y="22" width="1" height="1" fill="#5FCDE4" />
<rect x="23" y="22" width="1" height="1" fill="#5FCDE4" />
<rect x="24" y="22" width="1" height="1" fill="#5FCDE4" />
<rect x="25" y="22" width="1" height="1" fill="#5FCDE4" />
<rect x="26" y="22" width="1" height="1" fill="#5FCDE4" />
<rect x="27" y="22" width="1" height="1" fill="#5FCDE4" />
<rect x="28" y="22" width="1" height="1" fill="#5FCDE4" />
<rect x="29" y="22" width="1" height="1" fill="#5FCDE4" />
<rect x="30" y="22" width="1" height="1" fill="#5FCDE4" />
<rect x="31" y="22" width="1" height="1" fill="#5FCDE4" />
<rect x="32" y="22" width="1" height="1" fill="#5FCDE4" />
</svg>